<svg xmlns="http://www.w3.org/2000/svg" width="109" height="19">
    <path fill="#FFF" fill-rule="evenodd" d="M104.604 2.306v15.749h-2.136V2.306h-3.797V.556h9.73v1.75h-3.797zm-8.223 9.262a3.06 3.06 0 0 1-1.4 1.05c-.562.209-1.23.313-2.005.313-.364 0-.776-.025-1.234-.076-.459-.05-.839-.108-1.14-.174v5.374h-2.135V.806a10.818 10.818 0 0 1 1.815-.387c.609-.075 1.27-.113 1.982-.113.949 0 1.756.105 2.42.313.665.209 1.203.554 1.614 1.038.411.483.712 1.124.902 1.924.19.8.285 1.792.285 2.975 0 1.217-.091 2.234-.273 3.05-.182.817-.459 1.471-.831 1.962zm-1.21-7.262c-.119-.6-.305-1.075-.558-1.424a2.02 2.02 0 0 0-.961-.738c-.388-.141-.851-.213-1.388-.213h-1.662v9.25h1.662c.537 0 1-.071 1.388-.213.388-.141.708-.387.961-.737s.439-.825.558-1.425c.119-.6.178-1.35.178-2.25 0-.9-.059-1.65-.178-2.25zm-12.044 9.25h-4.746l-1.068 4.499h-2.136L79.211.556h3.085l4.035 17.499h-2.136l-1.068-4.499zm-2.326-10.5h-.095l-1.97 8.75h4.035l-1.97-8.75zm-10.252 2h-.118l-3.442 10.75h-2.136l-3.441-10.75h-.118l-.712 12.999h-2.136L59.395.556h2.611l3.868 12h.095l3.868-12h2.611l.949 17.499h-2.136l-.712-12.999zM54.601 16.431c-.443.683-.977 1.166-1.602 1.449-.625.284-1.341.425-2.147.425-.807 0-1.523-.141-2.148-.425-.625-.283-1.159-.766-1.602-1.449-.443-.684-.78-1.605-1.009-2.763-.229-1.158-.344-2.612-.344-4.362s.115-3.204.344-4.362c.229-1.158.566-2.079 1.009-2.763.443-.683.977-1.166 1.602-1.449.625-.284 1.341-.426 2.148-.426.806 0 1.522.142 2.147.426.625.283 1.159.766 1.602 1.449.443.684.779 1.605 1.009 2.763.229 1.158.344 2.612.344 4.362s-.115 3.204-.344 4.362c-.23 1.158-.566 2.079-1.009 2.763zM53.569 5.606c-.166-.966-.384-1.733-.653-2.3-.269-.566-.585-.958-.949-1.175a2.163 2.163 0 0 0-1.115-.325c-.38 0-.752.109-1.116.325-.364.217-.68.609-.949 1.175-.269.567-.487 1.334-.653 2.3-.166.967-.249 2.2-.249 3.7s.083 2.733.249 3.7c.166.966.384 1.733.653 2.299.269.567.585.959.949 1.176.364.216.736.324 1.116.324.379 0 .751-.108 1.115-.324.364-.217.68-.609.949-1.176.269-.566.487-1.333.653-2.299.166-.967.249-2.2.249-3.7s-.083-2.733-.249-3.7zm-12.804 4.45h-4.983v7.999h-2.136V.556h2.136v7.75h4.983V.556h2.136v17.499h-2.136v-7.999zm-11.272 7.999l-2.967-7.499-2.966 7.499h-2.136l3.56-8.999-3.204-8.5h2.136l2.61 7 2.611-7h2.136l-3.204 8.5 3.56 8.999h-2.136zM12.05.556h8.069v1.75h-5.933v5.75h5.221v1.75h-5.221v6.499h5.933v1.75H12.05V.556zM6.354 18.055H4.218V2.306H.421V.556h9.73v1.75H6.354v15.749z"/>
</svg>
